HIERARCHY
ROOT Hips
{
  OFFSET 5.72205e-005 65.662 3.42586
  CHANNELS 6 Xposition Yposition Zposition Zrotation Xrotation Yrotation
  JOINT Chest
  {
    OFFSET 0 8.7983 -4.7612
    CHANNELS 3 Zrotation Xrotation Yrotation
    JOINT Chest2
    {
      OFFSET 0 8.0291 0.4195
      CHANNELS 3 Zrotation Xrotation Yrotation
      JOINT Chest3
      {
        OFFSET 0 9.9351 -2.2114
        CHANNELS 3 Zrotation Xrotation Yrotation
        JOINT Neck
        {
          OFFSET 0 22.3885 -0.4656
          CHANNELS 3 Zrotation Xrotation Yrotation
          JOINT Head
          {
            OFFSET -0.0001 12.643 3.4389
            CHANNELS 3 Zrotation Xrotation Yrotation
            End Site
            {
              OFFSET 0.0001 17.6655 0.5274
            }
          }
        }
        JOINT LeftCollar
        {
          OFFSET 2.2603 21.606 7.4023
          CHANNELS 3 Zrotation Xrotation Yrotation
          JOINT LeftShoulder
          {
            OFFSET 13.5163 -1.1332 -5.0146
            CHANNELS 3 Zrotation Xrotation Yrotation
            JOINT LeftElbow
            {
              OFFSET -0.0995 -28.05 -0.2431
              CHANNELS 3 Zrotation Xrotation Yrotation
              JOINT LeftWrist
              {
                OFFSET 0.0679 -23.3996 -0.1402
                CHANNELS 3 Zrotation Xrotation Yrotation
                JOINT LeftFinger1
                {
                  OFFSET 0.7932 -9.069 2.5189
                  CHANNELS 3 Zrotation Xrotation Yrotation
                  JOINT LeftFinger11
                  {
                    OFFSET -0.8272 -3.3923 0.5977
                    CHANNELS 3 Zrotation Xrotation Yrotation
                    JOINT LeftFinger12
                    {
                      OFFSET -0.5649 -2.3158 0.4082
                      CHANNELS 3 Zrotation Xrotation Yrotation
                      End Site
                      {
                        OFFSET -0.4919 -1.6479 0.2673
                      }
                    }
                  }
                }
                JOINT LeftFinger2
                {
                  OFFSET 0.9159 -9.2044 0.2193
                  CHANNELS 3 Zrotation Xrotation Yrotation
                  JOINT LeftFinger21
                  {
                    OFFSET 0.0117 -4.1944 -0.0248
                    CHANNELS 3 Zrotation Xrotation Yrotation
                    JOINT LeftFinger22
                    {
                      OFFSET 0.0071 -2.3249 -0.0142
                      CHANNELS 3 Zrotation Xrotation Yrotation
                      End Site
                      {
                        OFFSET -0.1475 -2.0882 0.0028
                      }
                    }
                  }
                }
                JOINT LeftFinger3
                {
                  OFFSET 0.6113 -8.7231 -2.0637
                  CHANNELS 3 Zrotation Xrotation Yrotation
                  JOINT LeftFinger31
                  {
                    OFFSET -0.1927 -3.8059 -0.2383
                    CHANNELS 3 Zrotation Xrotation Yrotation
                    JOINT LeftFinger32
                    {
                      OFFSET -0.1091 -2.1688 -0.1362
                      CHANNELS 3 Zrotation Xrotation Yrotation
                      End Site
                      {
                        OFFSET -0.2358 -1.9176 -0.0906
                      }
                    }
                  }
                }
                JOINT LeftFinger4
                {
                  OFFSET -0.6151 -8.0947 -3.5641
                  CHANNELS 3 Zrotation Xrotation Yrotation
                  JOINT LeftFinger41
                  {
                    OFFSET -0.4882 -2.341 -0.6462
                    CHANNELS 3 Zrotation Xrotation Yrotation
                    JOINT LeftFinger42
                    {
                      OFFSET -0.3575 -1.7167 -0.4742
                      CHANNELS 3 Zrotation Xrotation Yrotation
                      End Site
                      {
                        OFFSET -0.4187 -1.5237 -0.3496
                      }
                    }
                  }
                }
                JOINT LeftFinger0
                {
                  OFFSET -1.42 -1.8761 1.4223
                  CHANNELS 3 Zrotation Xrotation Yrotation
                  JOINT LeftFinger01
                  {
                    OFFSET -1.1471 -3.4929 2.6334
                    CHANNELS 3 Zrotation Xrotation Yrotation
                    JOINT LeftFinger02
                    {
                      OFFSET -0.823 -2.3 1.6571
                      CHANNELS 3 Zrotation Xrotation Yrotation
                      End Site
                      {
                        OFFSET -0.5822 -1.6914 1.1582
                      }
                    }
                  }
                }
              }
            }
          }
        }
        JOINT RightCollar
        {
          OFFSET -2.2603 21.606 7.4023
          CHANNELS 3 Zrotation Xrotation Yrotation
          JOINT RightShoulder
          {
            OFFSET -13.5187 -1.1334 -5.0155
            CHANNELS 3 Zrotation Xrotation Yrotation
            JOINT RightElbow
            {
              OFFSET 0.0994 -28.0499 -0.2431
              CHANNELS 3 Zrotation Xrotation Yrotation
              JOINT RightWrist
              {
                OFFSET -0.0679 -23.3996 -0.1402
                CHANNELS 3 Zrotation Xrotation Yrotation
                JOINT RightFinger1
                {
                  OFFSET -0.7932 -9.0691 2.5189
                  CHANNELS 3 Zrotation Xrotation Yrotation
                  JOINT RightFinger11
                  {
                    OFFSET 0.8272 -3.3923 0.5977
                    CHANNELS 3 Zrotation Xrotation Yrotation
                    JOINT RightFinger12
                    {
                      OFFSET 0.565 -2.3158 0.4082
                      CHANNELS 3 Zrotation Xrotation Yrotation
                      End Site
                      {
                        OFFSET 0.4919 -1.6479 0.2673
                      }
                    }
                  }
                }
                JOINT RightFinger2
                {
                  OFFSET -0.916 -9.2044 0.2193
                  CHANNELS 3 Zrotation Xrotation Yrotation
                  JOINT RightFinger21
                  {
                    OFFSET -0.0117 -4.1944 -0.0248
                    CHANNELS 3 Zrotation Xrotation Yrotation
                    JOINT RightFinger22
                    {
                      OFFSET -0.0071 -2.3249 -0.0142
                      CHANNELS 3 Zrotation Xrotation Yrotation
                      End Site
                      {
                        OFFSET 0.1475 -2.0882 0.0028
                      }
                    }
                  }
                }
                JOINT RightFinger3
                {
                  OFFSET -0.6113 -8.7231 -2.0637
                  CHANNELS 3 Zrotation Xrotation Yrotation
                  JOINT RightFinger31
                  {
                    OFFSET 0.1927 -3.8059 -0.2383
                    CHANNELS 3 Zrotation Xrotation Yrotation
                    JOINT RightFinger32
                    {
                      OFFSET 0.1091 -2.1688 -0.1362
                      CHANNELS 3 Zrotation Xrotation Yrotation
                      End Site
                      {
                        OFFSET 0.2358 -1.9176 -0.0906
                      }
                    }
                  }
                }
                JOINT RightFinger4
                {
                  OFFSET 0.6151 -8.0947 -3.564
                  CHANNELS 3 Zrotation Xrotation Yrotation
                  JOINT RightFinger41
                  {
                    OFFSET 0.4882 -2.341 -0.6462
                    CHANNELS 3 Zrotation Xrotation Yrotation
                    JOINT RightFinger42
                    {
                      OFFSET 0.3574 -1.7166 -0.4742
                      CHANNELS 3 Zrotation Xrotation Yrotation
                      End Site
                      {
                        OFFSET 0.4187 -1.5237 -0.3496
                      }
                    }
                  }
                }
                JOINT RightFinger0
                {
                  OFFSET 1.4199 -1.8761 1.4221
                  CHANNELS 3 Zrotation Xrotation Yrotation
                  JOINT RightFinger01
                  {
                    OFFSET 1.1472 -3.4929 2.6336
                    CHANNELS 3 Zrotation Xrotation Yrotation
                    JOINT RightFinger02
                    {
                      OFFSET 0.8229 -2.3 1.6571
                      CHANNELS 3 Zrotation Xrotation Yrotation
                      End Site
                      {
                        OFFSET 0.5822 -1.6914 1.1582
                      }
                    }
                  }
                }
              }
            }
          }
        }
      }
    }
  }
  JOINT RightHip
  {
    OFFSET -9.412 3.9771 -0.7758
    CHANNELS 3 Zrotation Xrotation Yrotation
    JOINT RightKnee
    {
      OFFSET -0.7531 -40.938 0
      CHANNELS 3 Zrotation Xrotation Yrotation
      JOINT RightAnkle
      {
        OFFSET 0 -40.1986 0
        CHANNELS 3 Zrotation Xrotation Yrotation
        JOINT RightToe
        {
          OFFSET 0 -4.4182 9.239
          CHANNELS 3 Zrotation Xrotation Yrotation
          End Site
          {
            OFFSET 0 0 6.1981
          }
        }
      }
    }
  }
  JOINT LeftHip
  {
    OFFSET 9.4119 3.9773 -0.7758
    CHANNELS 3 Zrotation Xrotation Yrotation
    JOINT LeftKnee
    {
      OFFSET 0.7532 -40.9383 0
      CHANNELS 3 Zrotation Xrotation Yrotation
      JOINT LeftAnkle
      {
        OFFSET 0 -40.1986 0
        CHANNELS 3 Zrotation Xrotation Yrotation
        JOINT LeftToe
        {
          OFFSET 0 -4.4182 9.239
          CHANNELS 3 Zrotation Xrotation Yrotation
          End Site
          {
            OFFSET 0 0 6.1981
          }
        }
      }
    }
  }
}
MOTION
Frames:	4
Frame Time:	0.0333333
5.72205e-005 65.662 3.42586 0 0 -0 0 0 -0 0 0 -0 0 0 -0 0 0 -0 0 0 -0 0 0 -12.5014 88.1196 14.2451 10.6914 -0.00160068 -0.00239207 0.000740045 -8.4365e-005 7.00714e-005 -9.52055e-007 9.93923e-017 -1.98785e-016 -1.59028e-015 9.93923e-017 -5.96354e-016 -1.59028e-015 -9.93923e-017 -5.96354e-016 -1.59028e-015 9.93923e-017 -1.98785e-016 -1.59028e-015 -0.0128176 0.00232552 8.52707e-005 9.93923e-017 5.96354e-016 -0 9.93923e-017 -1.98785e-016 -1.59028e-015 -0.0160551 0.00299681 0.000857156 -2.48481e-016 0 3.18055e-015 9.93923e-017 -1.98785e-016 -1.59028e-015 -0.0125865 0.0031206 0.00282719 0 1.98785e-016 -0 9.93923e-017 -1.98785e-016 -1.59028e-015 9.93923e-017 -5.96354e-016 -1.59028e-015 -9.93923e-017 -5.96354e-016 -1.59028e-015 -0.865644 0.16582 7.03859 -88.0329 10.2057 -10.5567 0.0015593 -0.00248883 -0.000788628 7.87605e-005 4.10553e-005 1.24965e-005 -3.97569e-016 -7.95139e-016 3.18055e-015 -1.98785e-016 -3.97569e-016 3.18055e-015 -1.98785e-016 0 3.18055e-015 -3.97569e-016 -7.95139e-016 3.18055e-015 0.0129473 0.00231697 -8.70038e-005 9.93923e-017 -7.95139e-016 1.59028e-015 -3.97569e-016 -7.95139e-016 3.18055e-015 0.0163314 0.00303369 -0.000872333 3.97569e-016 7.95139e-016 -3.18055e-015 -3.97569e-016 -7.95139e-016 3.18055e-015 0.0145763 0.00367772 -0.00326275 9.93923e-017 -3.97569e-016 -0 -3.97569e-016 -7.95139e-016 3.18055e-015 -1.98785e-016 -3.97569e-016 3.18055e-015 -1.98785e-016 0 3.18055e-015 3.42482 1.32465 -0.0626183 0.000117508 0.717283 0.000978199 -3.4257 -2.04197 -0.0604716 6.47761e-025 0 -0 -3.42483 1.34017 0.0627307 -0.000193936 0.682302 -0.0013703 3.42574 -2.02253 0.0595886 -8.45714e-024 0 -7.40531e-025 
7.38383 43.8077 7.79914 -1.00381e-008 -27.4083 -8.27627e-009 0.0638216 7.18497 0.032507 0.12499 14.37 0.0575603 0.124991 14.37 0.0575604 1.97492e-007 -5.18536 1.49931e-007 2.76854e-008 4.44361 1.90117e-007 1.4548e-007 1.89253e-005 -12.5014 91.9499 -16.5519 30.6823 -2.17701 -12.931 -8.0449 -8.37726 1.53412 -0.147915 1.59028e-015 0 -1.59028e-015 2.60545e-006 6.09169e-007 3.99679e-006 -3.18055e-015 -3.18055e-015 -7.95139e-016 1.59028e-015 0 -1.59028e-015 -0.012831 0.0023228 8.92709e-005 -1.59028e-015 -3.18055e-015 -1.59028e-015 1.59028e-015 0 -1.59028e-015 -0.0160331 0.00298485 0.000858471 -3.18055e-015 -3.18055e-015 4.77083e-015 1.59028e-015 0 -1.59028e-015 -0.0127322 0.00315109 0.00286561 4.77083e-015 -1.27222e-014 -2.38542e-015 1.59028e-015 0 -1.59028e-015 2.60545e-006 6.09169e-007 3.99679e-006 -3.18055e-015 -3.18055e-015 -7.95139e-016 -0.867293 -3.53825 6.98256 -85.9242 -17.5187 -6.01604 0.449648 -12.1032 -8.12547 6.22021 -6.45088 -2.13758 6.01464e-006 -7.03066e-007 -2.47657e-006 -5.88063e-007 3.30616e-006 -2.11805e-006 -5.3995e-006 -4.00902e-006 2.26643e-006 6.01464e-006 -7.03066e-007 -2.47657e-006 0.012914 0.00231141 -8.54918e-005 2.35154e-006 -8.00141e-007 2.46424e-006 6.01464e-006 -7.03066e-007 -2.47657e-006 0.0162914 0.00303121 -0.00087002 -2.45629e-006 -5.29594e-006 8.40197e-007 6.01464e-006 -7.03066e-007 -2.47657e-006 0.0145968 0.00368329 -0.00326676 -1.02095e-005 -6.54655e-006 6.64984e-006 6.01464e-006 -7.03066e-007 -2.47657e-006 -5.88063e-007 3.30616e-006 -2.11805e-006 -5.3995e-006 -4.00902e-006 2.26643e-006 -9.31076 -24.6208 -25.0923 0.0917412 43.1714 -0.987275 -3.29271 4.98467 -0.473529 7.95139e-016 7.95139e-016 -0 9.41314 -24.5801 25.0549 -0.0862396 41.6787 0.928177 5.02719 2.77042 -0.0611193 1.1112e-006 4.43836e-007 1.46382e-006 
14.7786 23.6411 10.1763 1.23865e-009 -54.8165 5.1372e-009 0.0953462 14.37 0.104172 0.1712 28.7402 0.192276 0.1712 28.7401 0.192276 -8.83457e-006 -10.3717 -8.13845e-006 -2.5889e-007 8.88721 -7.38562e-008 -7.93907e-006 -0.000987869 -12.5014 93.4089 -47.4666 48.8803 -4.65996 -25.8644 -16.6153 -16.7596 3.07333 -0.0703937 -1.59028e-015 0 -8.74653e-015 -1.59028e-015 0 -5.96354e-015 3.18055e-015 0 -5.56597e-015 -1.59028e-015 0 -8.74653e-015 -0.0128205 0.00233314 8.88354e-005 -1.59028e-015 9.54166e-015 7.95139e-016 -1.59028e-015 0 -8.74653e-015 -0.0160942 0.00300349 0.000860167 1.10348e-031 3.18055e-015 -1.98785e-015 -1.59028e-015 0 -8.74653e-015 -0.0125494 0.00312553 0.0028178 -3.18055e-015 3.18055e-015 -8.34896e-015 -1.59028e-015 0 -8.74653e-015 -1.59028e-015 0 -5.96354e-015 3.18055e-015 0 -5.56597e-015 -0.872613 -7.24334 6.92605 -84.1402 -45.2747 -1.94262 1.14309 -24.2371 -15.5346 12.5322 -12.8762 -4.17157 3.18055e-015 -2.38542e-015 -3.97569e-016 -4.46262e-007 1.1641e-006 -6.96727e-007 -3.18055e-015 1.59028e-015 3.18055e-015 3.18055e-015 -2.38542e-015 -3.97569e-016 0.0129441 0.00231584 -8.78925e-005 -1.0483e-031 7.95139e-016 7.55382e-015 3.18055e-015 -2.38542e-015 -3.97569e-016 0.0163555 0.00304593 -0.000882556 4.49865e-007 -1.69268e-006 6.96554e-007 3.18055e-015 -2.38542e-015 -3.97569e-016 0.0146151 0.00369378 -0.00326884 3.18055e-015 -2.38542e-015 -2.78299e-015 3.18055e-015 -2.38542e-015 -3.97569e-016 -4.46262e-007 1.1641e-006 -6.96727e-007 -3.18055e-015 1.59028e-015 3.18055e-015 -43.9754 -35.3613 -60.3669 0.0297479 84.0975 -1.95511 -2.7282 12.551 -0.985557 7.72163e-006 -4.23515e-006 -8.5076e-006 44.0327 -35.1595 60.1247 -0.027221 81.0787 1.82039 6.40317 8.12155 -0.0726701 1.2331e-006 1.67255e-006 -1.40116e-005 
19.9662 9.86473 10.3566 -2.08677e-007 -74.0023 -2.46293e-007 0.0844368 19.3993 0.182055 0.109038 38.7989 0.366406 0.109038 38.7986 0.366404 -1.62583e-005 -14.0025 -2.0463e-005 -1.71644e-008 11.9978 4.67038e-007 -1.17465e-005 -0.00194354 -12.5014 88.6048 -68.8745 56.1111 -6.77634 -34.9083 -23.0687 -22.6367 4.1361 0.117487 3.18055e-015 1.11319e-014 -4.77083e-015 3.18055e-015 0 3.18055e-015 -5.58014e-006 -8.38351e-006 -7.85503e-006 3.18055e-015 1.11319e-014 -4.77083e-015 -0.0128458 0.00233067 7.99377e-005 -8.16634e-007 -7.07367e-006 -3.97536e-006 3.18055e-015 1.11319e-014 -4.77083e-015 -0.0160415 0.00298416 0.000859537 6.36111e-015 1.59028e-015 -0 3.18055e-015 1.11319e-014 -4.77083e-015 -0.0125483 0.00310684 0.0028268 2.17457e-007 -4.93812e-006 -5.97658e-006 3.18055e-015 1.11319e-014 -4.77083e-015 3.18055e-015 0 3.18055e-015 -5.58014e-006 -8.38351e-006 -7.85503e-006 -0.878573 -9.83716 6.88595 -83.712 -64.7136 0.0545845 1.96168 -32.7289 -20.1753 17.013 -17.3619 -5.52393 -5.96863e-006 3.75961e-006 4.33091e-006 -6.36111e-015 3.18055e-015 1.59028e-015 -6.36111e-015 6.36111e-015 1.59028e-015 -5.96863e-006 3.75961e-006 4.33091e-006 0.0129326 0.00230987 -8.43651e-005 -6.36111e-015 -1.59028e-015 -3.18055e-015 -5.96863e-006 3.75961e-006 4.33091e-006 0.0163671 0.00303322 -0.00087531 2.16625e-006 3.78737e-007 9.98917e-006 -5.96863e-006 3.75961e-006 4.33091e-006 0.0146194 0.00367044 -0.00326929 -6.36111e-015 1.59028e-015 -3.18055e-015 -5.96863e-006 3.75961e-006 4.33091e-006 -6.36111e-015 3.18055e-015 1.59028e-015 -6.36111e-015 6.36111e-015 1.59028e-015 -71.9294 -28.828 -83.2672 179.969 66.9853 177.139 -2.09911 17.7543 -1.59763 -7.10282e-007 -6.81504e-007 -1.47274e-006 71.8303 -28.4236 82.6128 179.929 70.9567 -177.403 7.27244 11.6606 0.118625 -7.24656e-007 -2.08451e-006 -6.1137e-006 
